<?xml version="1.0" encoding="utf-8"?>
<!-- Generator: Adobe Illustrator 27.9.0, SVG Export Plug-In . SVG Version: 6.00 Build 0)  -->
<svg version="1.1" id="Capa_1" xmlns="http://www.w3.org/2000/svg" xmlns:xlink="http://www.w3.org/1999/xlink" x="0px" y="0px"
	 viewBox="0 0 1037.2 1080" style="enable-background:new 0 0 1037.2 1080;" xml:space="preserve">
<style type="text/css">
	.st0{fill:#0D6EFD;}
</style>
<path class="st0" d="M1030.9,1080V0h-945v202.5H18.4V270h135V67.5h67.5v945h-67.5V945H85.9v135H1030.9z M288.4,67.5h675v945h-675
	V67.5z M18.4,472.5V405h67.5v-67.5h67.5v135H18.4z M18.4,675v-67.5h67.5V540h67.5v135H18.4z M18.4,877.5V810h67.5v-67.5h67.5v135
	H18.4z M423.4,270h135v67.5h-67.5V675h67.5v67.5h-135V270z M693.4,270h135v472.5h-135V675h67.5V337.5h-67.5V270z"/>
</svg>
