<?xml version="1.0" encoding="utf-8"?>
<!-- Generator: Adobe Illustrator 27.8.1, SVG Export Plug-In . SVG Version: 6.00 Build 0)  -->
<svg version="1.1" id="Capa_2_00000049924577648426244560000012193761864252017800_"
	 xmlns="http://www.w3.org/2000/svg" xmlns:xlink="http://www.w3.org/1999/xlink" x="0px" y="0px" viewBox="0 0 175 196"
	 style="enable-background:new 0 0 175 196;" xml:space="preserve">
<style type="text/css">
	.st0{fill:#68B542;}
</style>
<g id="Capa_1-2">
	<g>
		<g>
			<g>
				<path class="st0" d="M166.1,146.6l-75.4,43.1c-2,1.2-4.4,1.2-6.4,0L8.9,146.6c-2-1.1-3.2-3.2-3.2-5.5V54.9
					c0-2.3,1.2-4.4,3.2-5.5l75.4-43c2-1.2,4.4-1.2,6.4,0l75.4,43c2,1.1,3.2,3.2,3.2,5.5v86.1C169.4,143.3,168.1,145.4,166.1,146.6"
					/>
			</g>
			<g>
				<path class="st0" d="M166.1,146.6l-75.4,43.1c-2,1.2-4.4,1.2-6.4,0L8.9,146.6c-2-1.1-3.2-3.2-3.2-5.5V54.9
					c0-2.3,1.2-4.4,3.2-5.5l75.4-43c2-1.2,4.4-1.2,6.4,0l75.4,43c2,1.1,3.2,3.2,3.2,5.5v86.1C169.4,143.3,168.1,145.4,166.1,146.6"
					/>
			</g>
			<path class="st0" d="M166.1,146.6l-75.4,43.1c-2,1.2-4.4,1.2-6.4,0L8.9,146.6c-2-1.1-3.2-3.2-3.2-5.5V54.9c0-2.3,1.2-4.4,3.2-5.5
				l75.4-43c2-1.2,4.4-1.2,6.4,0l75.4,43c2,1.1,3.2,3.2,3.2,5.5v86.1C169.4,143.3,168.1,145.4,166.1,146.6"/>
		</g>
	</g>
</g>
</svg>
