<?xml version="1.0" encoding="UTF-8"?>
<svg id="Capa_2" data-name="Capa 2" xmlns="http://www.w3.org/2000/svg" viewBox="0 0 537.94 234.24">
  <defs>
    <style>
      .cls-1 {
        fill: #fff;
      }

      .cls-1, .cls-2 {
        stroke-width: 0px;
      }

      .cls-2 {
        fill: #68b542;
      }
    </style>
  </defs>
  <g id="Capa_1-2" data-name="Capa 1">
    <g>
      <path class="cls-1" d="m0,161.04c0-29.28,0-58.56,0-87.84.07-.22.18-.43.19-.65.64-11.33,5.95-19.8,15.74-25.41,24.43-14,48.91-27.93,73.36-41.92,3.24-1.85,6.53-3.54,10.2-4.38C100.88.53,102.29.28,103.68,0c1.84,0,3.68,0,5.52,0,.22.07.44.19.66.22,4.27.49,8.26,1.83,11.98,3.95,25.05,14.28,50.09,28.58,75.13,42.88,3.9,2.23,7.23,5.12,9.92,8.74.19.26.42.48.87,1v-10.62h133.35v10.09c.33-.26.49-.55.64-.86,2.76-5.69,7.24-9.03,13.59-9.32,5.19-.23,10.39-.03,15.59-.05,6.84-.02,13.68-.05,20.52-.08,8.18-.04,13.12,3.21,16.28,10.72,2.9,6.88,5.79,13.76,8.68,20.64.16.38.35.76.53,1.14.07-.01.14-.03.22-.04v-32.55h120.78v68.45h-3.5v42.19h-43.95v31.05h-1.64c-31.6,0-63.2,0-94.8,0-6.7,0-12.13-3.66-14.64-9.88-.76-1.89-1.49-3.79-2.19-5.7-.23-.62-.55-.86-1.23-.84-1.64.05-3.28.06-4.92,0-.73-.03-1.05.25-1.29.9-.74,1.98-1.53,3.95-2.34,5.9-2.55,6.15-7.75,9.61-14.4,9.61-13.68,0-27.36.06-41.04-.04-4.3-.03-8.61-.49-12.91-.75-1.15-.07-2.37-.4-3.44-.13-5.52,1.41-11.1,2.23-16.79,2.55-10.97.6-21.61-.79-31.84-4.87-14.07-5.61-25.05-14.72-32.04-28.33-.68-1.32-1.29-2.68-1.99-4.14-.07.23-.11.3-.11.37,0,2.28.05,4.56.03,6.84-.11,12.68-5.63,22.26-16.62,28.56-24.47,14.03-48.98,27.98-73.47,41.96-3.11,1.78-6.39,3.11-9.9,3.85-1.71.36-3.45.55-5.17.82h-2.64c-.22-.07-.43-.18-.65-.2-4.37-.27-8.53-1.41-12.37-3.46-4.54-2.43-8.98-5.05-13.45-7.61-20.95-11.96-41.9-23.91-62.83-35.92-8.3-4.76-13.5-11.82-15.18-21.32C.36,164.18.21,162.61,0,161.04Z"/>
      <g>
        <g>
          <path class="cls-2" d="m185,165.7l-75.41,43.05c-2,1.16-4.45,1.16-6.45,0l-75.41-43.05c-2-1.14-3.23-3.24-3.23-5.52v-86.12c0-2.28,1.22-4.38,3.23-5.52L103.14,25.49c2-1.16,4.45-1.16,6.45,0l75.41,43.05c2,1.14,3.23,3.24,3.23,5.52v86.12c0,2.28-1.22,4.38-3.23,5.52"/>
          <path class="cls-2" d="m274.58,164.77c8.49,0,15.9-1.64,22.23-4.88,6.31-3.26,11.18-7.9,14.59-13.94,3.42-6.02,5.11-13.04,5.11-21.06v-54.38h-24.29v54.38c0,5.9-1.6,10.59-4.85,14.07-3.23,3.47-7.45,5.21-12.66,5.21s-9.69-1.76-13.14-5.28c-3.45-3.52-5.17-8.19-5.17-14.01v-54.38h-24.29v54.38c0,8.02,1.74,15.04,5.24,21.06,3.48,6.04,8.45,10.68,14.85,13.94,6.42,3.24,13.88,4.88,22.37,4.88"/>
        </g>
        <path class="cls-2" d="m373.63,95.21l12.75,33h-25.75l13.01-33Zm-26.8,67.85l6.5-16.37h40.21l6.38,16.37h25.87l-39.02-92.55h-24.96l-39.95,92.55h24.96Z"/>
        <polygon class="cls-2" points="441.51 70.51 441.51 163.06 465.81 163.06 465.81 131.9 509.85 131.9 509.85 112.63 465.81 112.63 465.81 89.79 513.31 89.79 513.43 70.51 441.51 70.51"/>
        <g>
          <path class="cls-2" d="m185,165.7l-75.41,43.05c-2,1.16-4.45,1.16-6.45,0l-75.41-43.05c-2-1.14-3.23-3.24-3.23-5.52v-86.12c0-2.28,1.22-4.38,3.23-5.52L103.14,25.49c2-1.16,4.45-1.16,6.45,0l75.41,43.05c2,1.14,3.23,3.24,3.23,5.52v86.12c0,2.28-1.22,4.38-3.23,5.52"/>
          <path class="cls-2" d="m274.58,164.77c8.49,0,15.9-1.64,22.23-4.88,6.31-3.26,11.18-7.9,14.59-13.94,3.42-6.02,5.11-13.04,5.11-21.06v-54.38h-24.29v54.38c0,5.9-1.6,10.59-4.85,14.07-3.23,3.47-7.45,5.21-12.66,5.21s-9.69-1.76-13.14-5.28c-3.45-3.52-5.17-8.19-5.17-14.01v-54.38h-24.29v54.38c0,8.02,1.74,15.04,5.24,21.06,3.48,6.04,8.45,10.68,14.85,13.94,6.42,3.24,13.88,4.88,22.37,4.88"/>
        </g>
        <path class="cls-2" d="m373.63,95.21l12.75,33h-25.75l13.01-33Zm-26.8,67.85l6.5-16.37h40.21l6.38,16.37h25.87l-39.02-92.55h-24.96l-39.95,92.55h24.96Z"/>
        <polygon class="cls-2" points="441.51 70.51 441.51 163.06 465.81 163.06 465.81 131.9 509.85 131.9 509.85 112.63 465.81 112.63 465.81 89.79 513.31 89.79 513.43 70.51 441.51 70.51"/>
        <path class="cls-2" d="m185,165.7l-75.41,43.05c-2,1.16-4.45,1.16-6.45,0l-75.41-43.05c-2-1.14-3.23-3.24-3.23-5.52v-86.12c0-2.28,1.22-4.38,3.23-5.52L103.14,25.49c2-1.16,4.45-1.16,6.45,0l75.41,43.05c2,1.14,3.23,3.24,3.23,5.52v86.12c0,2.28-1.22,4.38-3.23,5.52"/>
        <path class="cls-2" d="m274.58,164.77c8.49,0,15.9-1.64,22.23-4.88,6.31-3.26,11.18-7.9,14.59-13.94,3.42-6.02,5.11-13.04,5.11-21.06v-54.38h-24.29v54.38c0,5.9-1.6,10.59-4.85,14.07-3.23,3.47-7.45,5.21-12.66,5.21s-9.69-1.76-13.14-5.28c-3.45-3.52-5.17-8.19-5.17-14.01v-54.38h-24.29v54.38c0,8.02,1.74,15.04,5.24,21.06,3.48,6.04,8.45,10.68,14.85,13.94,6.42,3.24,13.88,4.88,22.37,4.88"/>
        <path class="cls-2" d="m373.63,95.21l12.75,33h-25.75l13.01-33Zm-26.8,67.85l6.5-16.37h40.21l6.38,16.37h25.87l-39.02-92.55h-24.96l-39.95,92.55h24.96Z"/>
        <polygon class="cls-2" points="441.51 70.51 441.51 163.06 465.81 163.06 465.81 131.9 509.85 131.9 509.85 112.63 465.81 112.63 465.81 89.79 513.31 89.79 513.43 70.51 441.51 70.51"/>
      </g>
    </g>
  </g>
</svg>