<?xml version="1.0" encoding="utf-8"?>
<!-- Generator: Adobe Illustrator 27.9.0, SVG Export Plug-In . SVG Version: 6.00 Build 0)  -->
<svg version="1.1" id="Capa_2_00000036234557549274434570000011689434282449495455_"
	 xmlns="http://www.w3.org/2000/svg" xmlns:xlink="http://www.w3.org/1999/xlink" x="0px" y="0px" viewBox="0 0 537.9 234.2"
	 style="enable-background:new 0 0 537.9 234.2;" xml:space="preserve">
<style type="text/css">
	.st0{fill:#68B542;}
</style>
<g id="Capa_1-2">
	<g>
		<g>
			<g>
				<path class="st0" d="M185,165.7l-75.4,43.1c-2,1.2-4.4,1.2-6.4,0l-75.4-43.1c-2-1.1-3.2-3.2-3.2-5.5V74.1c0-2.3,1.2-4.4,3.2-5.5
					l75.4-43c2-1.2,4.4-1.2,6.4,0L185,68.5c2,1.1,3.2,3.2,3.2,5.5v86.1C188.2,162.5,187,164.6,185,165.7"/>
				<path class="st0" d="M274.6,164.8c8.5,0,15.9-1.6,22.2-4.9c6.3-3.3,11.2-7.9,14.6-13.9c3.4-6,5.1-13,5.1-21.1V70.5h-24.3v54.4
					c0,5.9-1.6,10.6-4.9,14.1c-3.2,3.5-7.5,5.2-12.7,5.2s-9.7-1.8-13.1-5.3s-5.2-8.2-5.2-14V70.5h-24.3v54.4c0,8,1.7,15,5.2,21.1
					c3.5,6,8.4,10.7,14.9,13.9C258.6,163.1,266.1,164.8,274.6,164.8"/>
			</g>
			<path class="st0" d="M373.6,95.2l12.8,33h-25.8L373.6,95.2L373.6,95.2z M346.8,163.1l6.5-16.4h40.2l6.4,16.4h25.9l-39-92.6h-25
				l-40,92.6H346.8L346.8,163.1z"/>
			<polygon class="st0" points="441.5,70.5 441.5,163.1 465.8,163.1 465.8,131.9 509.9,131.9 509.9,112.6 465.8,112.6 465.8,89.8 
				513.3,89.8 513.4,70.5 			"/>
			<g>
				<path class="st0" d="M185,165.7l-75.4,43.1c-2,1.2-4.4,1.2-6.4,0l-75.4-43.1c-2-1.1-3.2-3.2-3.2-5.5V74.1c0-2.3,1.2-4.4,3.2-5.5
					l75.4-43c2-1.2,4.4-1.2,6.4,0L185,68.5c2,1.1,3.2,3.2,3.2,5.5v86.1C188.2,162.5,187,164.6,185,165.7"/>
				<path class="st0" d="M274.6,164.8c8.5,0,15.9-1.6,22.2-4.9c6.3-3.3,11.2-7.9,14.6-13.9c3.4-6,5.1-13,5.1-21.1V70.5h-24.3v54.4
					c0,5.9-1.6,10.6-4.9,14.1c-3.2,3.5-7.5,5.2-12.7,5.2s-9.7-1.8-13.1-5.3s-5.2-8.2-5.2-14V70.5h-24.3v54.4c0,8,1.7,15,5.2,21.1
					c3.5,6,8.4,10.7,14.9,13.9C258.6,163.1,266.1,164.8,274.6,164.8"/>
			</g>
			<path class="st0" d="M373.6,95.2l12.8,33h-25.8L373.6,95.2L373.6,95.2z M346.8,163.1l6.5-16.4h40.2l6.4,16.4h25.9l-39-92.6h-25
				l-40,92.6H346.8L346.8,163.1z"/>
			<polygon class="st0" points="441.5,70.5 441.5,163.1 465.8,163.1 465.8,131.9 509.9,131.9 509.9,112.6 465.8,112.6 465.8,89.8 
				513.3,89.8 513.4,70.5 			"/>
			<path class="st0" d="M185,165.7l-75.4,43.1c-2,1.2-4.4,1.2-6.4,0l-75.4-43.1c-2-1.1-3.2-3.2-3.2-5.5V74.1c0-2.3,1.2-4.4,3.2-5.5
				l75.4-43c2-1.2,4.4-1.2,6.4,0L185,68.5c2,1.1,3.2,3.2,3.2,5.5v86.1C188.2,162.5,187,164.6,185,165.7"/>
			<path class="st0" d="M274.6,164.8c8.5,0,15.9-1.6,22.2-4.9c6.3-3.3,11.2-7.9,14.6-13.9c3.4-6,5.1-13,5.1-21.1V70.5h-24.3v54.4
				c0,5.9-1.6,10.6-4.9,14.1c-3.2,3.5-7.5,5.2-12.7,5.2s-9.7-1.8-13.1-5.3s-5.2-8.2-5.2-14V70.5h-24.3v54.4c0,8,1.7,15,5.2,21.1
				c3.5,6,8.4,10.7,14.9,13.9C258.6,163.1,266.1,164.8,274.6,164.8"/>
			<path class="st0" d="M373.6,95.2l12.8,33h-25.8L373.6,95.2L373.6,95.2z M346.8,163.1l6.5-16.4h40.2l6.4,16.4h25.9l-39-92.6h-25
				l-40,92.6H346.8L346.8,163.1z"/>
			<polygon class="st0" points="441.5,70.5 441.5,163.1 465.8,163.1 465.8,131.9 509.9,131.9 509.9,112.6 465.8,112.6 465.8,89.8 
				513.3,89.8 513.4,70.5 			"/>
		</g>
	</g>
</g>
</svg>
