<?xml version="1.0" encoding="utf-8"?>
<!-- Generator: Adobe Illustrator 28.0.0, SVG Export Plug-In . SVG Version: 6.00 Build 0)  -->
<svg version="1.1" id="Capa_1" xmlns="http://www.w3.org/2000/svg" xmlns:xlink="http://www.w3.org/1999/xlink" x="0px" y="0px"
	 viewBox="0 0 32 32" style="enable-background:new 0 0 32 32;" xml:space="preserve">
<style type="text/css">
	.st0{fill:#6A6A6A;}
</style>
<path class="st0" d="M26.9,3H5.1C4,3,3,4,3,5.1v21.7C3,28,4,29,5.1,29h21.7c1.2,0,2.1-1,2.1-2.1V5.2C29.1,4.1,28,3,26.9,3z M5.1,27
	V5.2h4.7c0,1.5,0.1,3.4,0.5,5c1.1,3.7,2.1,4.8,3.3,5.9c0.7,0.6,1.4,1.4,2.2,2.8c0.9,1.5,1,2.5,1.1,3.6c0.1,1.3,0.3,2.6,1.3,4.5H5.1z
	 M26.9,27h-6.6c-1.2-2-1.4-3.3-1.5-4.7c-0.1-1.3-0.3-2.6-1.3-4.3c0-0.1-0.1-0.1-0.1-0.2c0.5-0.9,2-3,5.1-4.2c1.5-0.5,3-1,4.5-1.1V27
	H26.9z M26.9,10.9c-1.7,0.2-3.5,0.6-5.1,1.2c-3,1.2-4.7,3-5.5,4.3c-0.4-0.5-0.9-1-1.4-1.4c-1.1-1.1-1.9-1.8-2.8-5.1
	c-0.4-1.4-0.5-3.2-0.5-4.6h15.3V10.9z"/>
</svg>
